<?xml version="1.0" standalone="no"?>
<!DOCTYPE svg PUBLIC "-//W3C//DTD SVG 20010904//EN"
 "http://www.w3.org/TR/2001/REC-SVG-20010904/DTD/svg10.dtd">
<svg version="1.0" xmlns="http://www.w3.org/2000/svg"
 width="1181.000000pt" height="1181.000000pt" viewBox="0 0 1181.000000 1181.000000"
 preserveAspectRatio="xMidYMid meet">

<g transform="translate(0.000000,1181.000000) scale(0.100000,-0.100000)"
fill="#000000" stroke="none">
<path d="M1475 6929 c17 -5 118 -29 225 -54 353 -80 582 -133 760 -175 96 -23
252 -59 345 -80 94 -22 267 -61 385 -89 118 -27 325 -75 460 -106 135 -31 310
-71 390 -90 206 -48 962 -223 1275 -295 94 -21 249 -57 345 -80 96 -23 252
-59 345 -80 94 -22 247 -57 340 -78 94 -22 301 -70 460 -106 301 -70 555 -128
735 -171 130 -31 413 -95 417 -95 2 0 3 340 3 755 l0 755 -3257 -1 c-1967 0
-3246 -4 -3228 -10z"/>
<path d="M7960 5146 l0 -276 1198 1 1197 0 -170 40 c-93 22 -246 57 -340 79
-93 21 -249 57 -345 80 -96 23 -251 59 -345 80 -93 22 -267 61 -385 89 -555
128 -738 170 -772 176 l-38 7 0 -276z"/>
</g>
</svg>
